<svg width="1440" height="817" viewBox="0 0 1440 817" fill="none" xmlns="http://www.w3.org/2000/svg">
<path opacity="0.7" d="M-73.142 40.2794C-95.017 30.1711 -84.9862 -2.82966 -61.1861 0.945322L191.943 41.0947C193.647 41.3649 194.803 41.5196 196.525 41.6346C250.098 45.2137 1349.76 120.134 1440 245.5C1507.89 339.813 1476.12 603.544 1454.42 737.197C1446.82 783.935 1406.07 817 1358.72 817H87.2394C55.4728 817 40.8112 776.346 67.8519 759.675C69.4443 758.693 73.8437 756.168 75.587 755.49C302.747 667.088 663 612.632 663 384.5C663 163.555 -19.8101 49.6617 -67.8417 41.9234C-69.7479 41.6162 -71.3893 41.0893 -73.142 40.2794Z" fill="#B0CAEF"/>
</svg>
